<svg xmlns="http://www.w3.org/2000/svg" width="28" height="28" fill="none" viewBox="0 0 28 28"><path fill="#FF5044" fill-rule="evenodd" d="M27.997 13.548a13.49 13.49 0 0 0-.273-2.348 13.897 13.897 0 0 0-3.48-6.744c-.066-.071-.13-.143-.199-.212a14.13 14.13 0 0 0-2.436-2A13.79 13.79 0 0 0 17.048.335h-.003A13.951 13.951 0 0 0 14.088 0h-.17a13.775 13.775 0 0 0-2.958.336h-.003a13.897 13.897 0 0 0-6.829 3.74c-.055.052-.113.113-.168.168A13.949 13.949 0 0 0 0 13.948v.055a13.726 13.726 0 0 0 .32 2.97 13.814 13.814 0 0 0 2.047 4.818 14.058 14.058 0 0 0 3.944 3.91 13.897 13.897 0 0 0 4.944 2.029c.81.162 1.645.25 2.497.267.08.003.165.003.248.003.083 0 .165 0 .245-.003a13.788 13.788 0 0 0 2.497-.267 13.855 13.855 0 0 0 4.944-2.028 14.334 14.334 0 0 0 2.318-1.908c.6-.614 1.15-1.287 1.629-2.003a13.806 13.806 0 0 0 2.047-4.82c.193-.868.298-1.767.317-2.687.003-.094.003-.188.003-.281v-.055c0-.133-.003-.27-.008-.403l.005.003ZM15.298 2.411a11.62 11.62 0 0 1 6.063 2.539 3.174 3.174 0 0 1-.43.595h-.003c-.069.08-.143.154-.223.226 0 0-.003 0-.003.003A3.306 3.306 0 0 1 15.3 2.412h-.002Zm-2.59 0c.082.29.126.596.126.913a3.306 3.306 0 0 1-5.53 2.447c-.01-.006-.017-.017-.026-.022a2.152 2.152 0 0 1-.176-.18c-.008-.005-.017-.016-.022-.021a3.105 3.105 0 0 1-.436-.598 11.62 11.62 0 0 1 6.063-2.539Zm-7.056 18.41s-.016.016-.022.025a2.141 2.141 0 0 1-.179.176c-.005.006-.016.014-.022.022a3.17 3.17 0 0 1-.46.35 11.62 11.62 0 0 1-2.552-6.013 3.306 3.306 0 0 1 3.235 5.437v.003Zm-2.447-7.868c-.278 0-.551-.033-.813-.1A11.585 11.585 0 0 1 4.85 6.775c.207.119.4.262.576.422h.003a3.455 3.455 0 0 1 .226.228 3.306 3.306 0 0 1-2.45 5.528Zm9.555 12.655a11.622 11.622 0 0 1-6.02-2.47c.1-.157.213-.305.34-.443.005-.006.014-.017.022-.022.052-.063.116-.121.176-.18.009-.005.017-.016.025-.021a3.306 3.306 0 0 1 5.457 3.136Zm2.486 0a3.306 3.306 0 0 1 5.683-2.91c.123.137.236.28.338.438a11.556 11.556 0 0 1-6.021 2.472Zm3.916-7.011c0 .248.016.493.05.733a5.61 5.61 0 0 0-5.206 2.16 5.632 5.632 0 0 0-5.21-2.16 5.61 5.61 0 0 0-2.16-5.206 5.636 5.636 0 0 0 2.16-5.209 5.639 5.639 0 0 0 5.209-2.155 5.633 5.633 0 0 0 5.206 2.155 5.639 5.639 0 0 0 2.155 5.209 5.634 5.634 0 0 0-2.204 4.473Zm3.875 2.797a3.172 3.172 0 0 1-.46-.35c-.006-.008-.017-.016-.023-.022-.063-.052-.12-.116-.179-.176a3.285 3.285 0 0 1-.882-2.249 3.306 3.306 0 0 1 4.096-3.214 11.665 11.665 0 0 1-2.552 6.014v-.003Zm1.766-8.441a3.306 3.306 0 0 1-2.45-5.529s0-.002.003-.002c.072-.08.146-.155.223-.224 0-.002.003-.002.003-.002.176-.163.37-.303.576-.422a11.594 11.594 0 0 1 2.458 6.08c-.262.066-.535.099-.813.099Z" clip-rule="evenodd"/></svg>
